<svg xmlns="http://www.w3.org/2000/svg" viewBox="0 0 760 460" font-family="system-ui,Segoe UI,Arial" font-size="13"><rect width="760" height="460" fill="white"/><text x="70" y="26" font-size="16" font-weight="600">V3 − V2 gap vs delayed_reward_strength</text><line x1="70" y1="50" x2="70" y2="400" stroke="#333" stroke-width="1"/><line x1="70" y1="400" x2="590" y2="400" stroke="#333" stroke-width="1"/><line x1="70" y1="400.0" x2="590" y2="400.0" stroke="#eee" stroke-width="1"/><text x="62" y="404.0" text-anchor="end" fill="#444">-0.22</text><line x1="70" y1="330.0" x2="590" y2="330.0" stroke="#eee" stroke-width="1"/><text x="62" y="334.0" text-anchor="end" fill="#444">-0.06</text><line x1="70" y1="260.0" x2="590" y2="260.0" stroke="#eee" stroke-width="1"/><text x="62" y="264.0" text-anchor="end" fill="#444">0.09</text><line x1="70" y1="190.0" x2="590" y2="190.0" stroke="#eee" stroke-width="1"/><text x="62" y="194.0" text-anchor="end" fill="#444">0.25</text><line x1="70" y1="120.0" x2="590" y2="120.0" stroke="#eee" stroke-width="1"/><text x="62" y="124.0" text-anchor="end" fill="#444">0.41</text><line x1="70" y1="50.0" x2="590" y2="50.0" stroke="#eee" stroke-width="1"/><text x="62" y="54.0" text-anchor="end" fill="#444">0.57</text><line x1="70" y1="301.8" x2="590" y2="301.8" stroke="#888" stroke-width="1.2" stroke-dasharray="5,4"/><text x="590" y="296.8" text-anchor="end" fill="#888">V3 = V2</text><line x1="70.0" y1="400" x2="70.0" y2="405" stroke="#333"/><text x="70.0" y="420" text-anchor="middle" fill="#444">0</text><line x1="135.0" y1="400" x2="135.0" y2="405" stroke="#333"/><text x="135.0" y="420" text-anchor="middle" fill="#444">0.25</text><line x1="200.0" y1="400" x2="200.0" y2="405" stroke="#333"/><text x="200.0" y="420" text-anchor="middle" fill="#444">0.5</text><line x1="330.0" y1="400" x2="330.0" y2="405" stroke="#333"/><text x="330.0" y="420" text-anchor="middle" fill="#444">1</text><line x1="590.0" y1="400" x2="590.0" y2="405" stroke="#333"/><text x="590.0" y="420" text-anchor="middle" fill="#444">2</text><text x="330.0" y="446" text-anchor="middle" fill="#222">delayed_reward_strength</text><text x="18" y="225.0" text-anchor="middle" fill="#222" transform="rotate(-90 18 225.0)">mean reward gap / session</text><polyline points="70.0,258.2 135.0,96.3 200.0,165.6 330.0,196.1 590.0,193.9" fill="none" stroke="#1f77b4" stroke-width="2.2"/><line x1="70.0" y1="232.9" x2="70.0" y2="283.5" stroke="#1f77b4" stroke-width="1.2"/><circle cx="70.0" cy="258.2" r="3.2" fill="#1f77b4"/><line x1="135.0" y1="74.1" x2="135.0" y2="118.6" stroke="#1f77b4" stroke-width="1.2"/><circle cx="135.0" cy="96.3" r="3.2" fill="#1f77b4"/><line x1="200.0" y1="131.7" x2="200.0" y2="199.4" stroke="#1f77b4" stroke-width="1.2"/><circle cx="200.0" cy="165.6" r="3.2" fill="#1f77b4"/><line x1="330.0" y1="168.3" x2="330.0" y2="223.9" stroke="#1f77b4" stroke-width="1.2"/><circle cx="330.0" cy="196.1" r="3.2" fill="#1f77b4"/><line x1="590.0" y1="167.6" x2="590.0" y2="220.1" stroke="#1f77b4" stroke-width="1.2"/><circle cx="590.0" cy="193.9" r="3.2" fill="#1f77b4"/><line x1="604" y1="60" x2="624" y2="60" stroke="#1f77b4" stroke-width="2.2"/><text x="630" y="64" fill="#222">PPO (V3) − bandit (V2)</text><polyline points="70.0,354.3 135.0,354.8 200.0,342.2 330.0,333.3 590.0,331.1" fill="none" stroke="#d62728" stroke-width="2.2"/><line x1="70.0" y1="333.6" x2="70.0" y2="375.0" stroke="#d62728" stroke-width="1.2"/><circle cx="70.0" cy="354.3" r="3.2" fill="#d62728"/><line x1="135.0" y1="333.7" x2="135.0" y2="375.9" stroke="#d62728" stroke-width="1.2"/><circle cx="135.0" cy="354.8" r="3.2" fill="#d62728"/><line x1="200.0" y1="322.3" x2="200.0" y2="362.1" stroke="#d62728" stroke-width="1.2"/><circle cx="200.0" cy="342.2" r="3.2" fill="#d62728"/><line x1="330.0" y1="315.0" x2="330.0" y2="351.6" stroke="#d62728" stroke-width="1.2"/><circle cx="330.0" cy="333.3" r="3.2" fill="#d62728"/><line x1="590.0" y1="313.7" x2="590.0" y2="348.4" stroke="#d62728" stroke-width="1.2"/><circle cx="590.0" cy="331.1" r="3.2" fill="#d62728"/><line x1="604" y1="82" x2="624" y2="82" stroke="#d62728" stroke-width="2.2"/><text x="630" y="86" fill="#222">FQI (tabular V3) − bandit (V2)</text></svg>