<svg xmlns="http://www.w3.org/2000/svg" viewBox="0 0 760 460" font-family="system-ui,Segoe UI,Arial" font-size="13"><rect width="760" height="460" fill="white"/><text x="70" y="26" font-size="16" font-weight="600">Anchor-adjusted Δ(v) vs transition_coupling_strength</text><line x1="70" y1="50" x2="70" y2="400" stroke="#333" stroke-width="1"/><line x1="70" y1="400" x2="590" y2="400" stroke="#333" stroke-width="1"/><line x1="70" y1="400.0" x2="590" y2="400.0" stroke="#eee" stroke-width="1"/><text x="62" y="404.0" text-anchor="end" fill="#444">-0.67</text><line x1="70" y1="330.0" x2="590" y2="330.0" stroke="#eee" stroke-width="1"/><text x="62" y="334.0" text-anchor="end" fill="#444">-0.36</text><line x1="70" y1="260.0" x2="590" y2="260.0" stroke="#eee" stroke-width="1"/><text x="62" y="264.0" text-anchor="end" fill="#444">-0.05</text><line x1="70" y1="190.0" x2="590" y2="190.0" stroke="#eee" stroke-width="1"/><text x="62" y="194.0" text-anchor="end" fill="#444">0.25</text><line x1="70" y1="120.0" x2="590" y2="120.0" stroke="#eee" stroke-width="1"/><text x="62" y="124.0" text-anchor="end" fill="#444">0.56</text><line x1="70" y1="50.0" x2="590" y2="50.0" stroke="#eee" stroke-width="1"/><text x="62" y="54.0" text-anchor="end" fill="#444">0.87</text><line x1="70" y1="247.5" x2="590" y2="247.5" stroke="#888" stroke-width="1.2" stroke-dasharray="5,4"/><text x="590" y="242.5" text-anchor="end" fill="#888">V3 = V2</text><line x1="70.0" y1="400" x2="70.0" y2="405" stroke="#333"/><text x="70.0" y="420" text-anchor="middle" fill="#444">0</text><line x1="156.7" y1="400" x2="156.7" y2="405" stroke="#333"/><text x="156.7" y="420" text-anchor="middle" fill="#444">0.5</text><line x1="243.3" y1="400" x2="243.3" y2="405" stroke="#333"/><text x="243.3" y="420" text-anchor="middle" fill="#444">1</text><line x1="416.7" y1="400" x2="416.7" y2="405" stroke="#333"/><text x="416.7" y="420" text-anchor="middle" fill="#444">2</text><line x1="590.0" y1="400" x2="590.0" y2="405" stroke="#333"/><text x="590.0" y="420" text-anchor="middle" fill="#444">3</text><text x="330.0" y="446" text-anchor="middle" fill="#222">transition_coupling_strength</text><text x="18" y="225.0" text-anchor="middle" fill="#222" transform="rotate(-90 18 225.0)">mean reward gap / session</text><polyline points="70.0,247.5 156.7,195.6 243.3,131.0 416.7,148.5 590.0,192.9" fill="none" stroke="#1f77b4" stroke-width="2.2"/><line x1="70.0" y1="247.5" x2="70.0" y2="247.5" stroke="#1f77b4" stroke-width="1.2"/><circle cx="70.0" cy="247.5" r="3.2" fill="#1f77b4"/><line x1="156.7" y1="166.1" x2="156.7" y2="225.2" stroke="#1f77b4" stroke-width="1.2"/><circle cx="156.7" cy="195.6" r="3.2" fill="#1f77b4"/><line x1="243.3" y1="74.1" x2="243.3" y2="187.9" stroke="#1f77b4" stroke-width="1.2"/><circle cx="243.3" cy="131.0" r="3.2" fill="#1f77b4"/><line x1="416.7" y1="116.5" x2="416.7" y2="180.5" stroke="#1f77b4" stroke-width="1.2"/><circle cx="416.7" cy="148.5" r="3.2" fill="#1f77b4"/><line x1="590.0" y1="128.5" x2="590.0" y2="257.3" stroke="#1f77b4" stroke-width="1.2"/><circle cx="590.0" cy="192.9" r="3.2" fill="#1f77b4"/><line x1="604" y1="60" x2="624" y2="60" stroke="#1f77b4" stroke-width="2.2"/><text x="630" y="64" fill="#222">Δ PPO − bandit (anchor-adj.)</text><polyline points="70.0,247.5 156.7,307.7 243.3,308.9 416.7,326.7 590.0,296.7" fill="none" stroke="#d62728" stroke-width="2.2"/><line x1="70.0" y1="247.5" x2="70.0" y2="247.5" stroke="#d62728" stroke-width="1.2"/><circle cx="70.0" cy="247.5" r="3.2" fill="#d62728"/><line x1="156.7" y1="279.2" x2="156.7" y2="336.2" stroke="#d62728" stroke-width="1.2"/><circle cx="156.7" cy="307.7" r="3.2" fill="#d62728"/><line x1="243.3" y1="250.1" x2="243.3" y2="367.7" stroke="#d62728" stroke-width="1.2"/><circle cx="243.3" cy="308.9" r="3.2" fill="#d62728"/><line x1="416.7" y1="277.6" x2="416.7" y2="375.9" stroke="#d62728" stroke-width="1.2"/><circle cx="416.7" cy="326.7" r="3.2" fill="#d62728"/><line x1="590.0" y1="229.4" x2="590.0" y2="364.0" stroke="#d62728" stroke-width="1.2"/><circle cx="590.0" cy="296.7" r="3.2" fill="#d62728"/><line x1="604" y1="82" x2="624" y2="82" stroke="#d62728" stroke-width="2.2"/><text x="630" y="86" fill="#222">Δ FQI − bandit (anchor-adj.)</text></svg>