<svg xmlns="http://www.w3.org/2000/svg" viewBox="0 0 760 460" font-family="system-ui,Segoe UI,Arial" font-size="13"><rect width="760" height="460" fill="white"/><text x="70" y="26" font-size="16" font-weight="600">V3 − V2 gap vs fatigue_rate</text><line x1="70" y1="50" x2="70" y2="400" stroke="#333" stroke-width="1"/><line x1="70" y1="400" x2="590" y2="400" stroke="#333" stroke-width="1"/><line x1="70" y1="400.0" x2="590" y2="400.0" stroke="#eee" stroke-width="1"/><text x="62" y="404.0" text-anchor="end" fill="#444">-0.24</text><line x1="70" y1="330.0" x2="590" y2="330.0" stroke="#eee" stroke-width="1"/><text x="62" y="334.0" text-anchor="end" fill="#444">-0.14</text><line x1="70" y1="260.0" x2="590" y2="260.0" stroke="#eee" stroke-width="1"/><text x="62" y="264.0" text-anchor="end" fill="#444">-0.04</text><line x1="70" y1="190.0" x2="590" y2="190.0" stroke="#eee" stroke-width="1"/><text x="62" y="194.0" text-anchor="end" fill="#444">0.06</text><line x1="70" y1="120.0" x2="590" y2="120.0" stroke="#eee" stroke-width="1"/><text x="62" y="124.0" text-anchor="end" fill="#444">0.16</text><line x1="70" y1="50.0" x2="590" y2="50.0" stroke="#eee" stroke-width="1"/><text x="62" y="54.0" text-anchor="end" fill="#444">0.26</text><line x1="70" y1="231.6" x2="590" y2="231.6" stroke="#888" stroke-width="1.2" stroke-dasharray="5,4"/><text x="590" y="226.6" text-anchor="end" fill="#888">V3 = V2</text><line x1="70.0" y1="400" x2="70.0" y2="405" stroke="#333"/><text x="70.0" y="420" text-anchor="middle" fill="#444">0</text><line x1="156.7" y1="400" x2="156.7" y2="405" stroke="#333"/><text x="156.7" y="420" text-anchor="middle" fill="#444">0.1</text><line x1="243.3" y1="400" x2="243.3" y2="405" stroke="#333"/><text x="243.3" y="420" text-anchor="middle" fill="#444">0.2</text><line x1="416.7" y1="400" x2="416.7" y2="405" stroke="#333"/><text x="416.7" y="420" text-anchor="middle" fill="#444">0.4</text><line x1="590.0" y1="400" x2="590.0" y2="405" stroke="#333"/><text x="590.0" y="420" text-anchor="middle" fill="#444">0.6</text><text x="330.0" y="446" text-anchor="middle" fill="#222">fatigue_rate</text><text x="18" y="225.0" text-anchor="middle" fill="#222" transform="rotate(-90 18 225.0)">mean reward gap / session</text><polyline points="70.0,140.2 156.7,246.5 243.3,169.0 416.7,131.2 590.0,130.4" fill="none" stroke="#1f77b4" stroke-width="2.2"/><line x1="70.0" y1="93.4" x2="70.0" y2="186.9" stroke="#1f77b4" stroke-width="1.2"/><circle cx="70.0" cy="140.2" r="3.2" fill="#1f77b4"/><line x1="156.7" y1="202.7" x2="156.7" y2="290.2" stroke="#1f77b4" stroke-width="1.2"/><circle cx="156.7" cy="246.5" r="3.2" fill="#1f77b4"/><line x1="243.3" y1="129.3" x2="243.3" y2="208.7" stroke="#1f77b4" stroke-width="1.2"/><circle cx="243.3" cy="169.0" r="3.2" fill="#1f77b4"/><line x1="416.7" y1="74.1" x2="416.7" y2="188.3" stroke="#1f77b4" stroke-width="1.2"/><circle cx="416.7" cy="131.2" r="3.2" fill="#1f77b4"/><line x1="590.0" y1="107.8" x2="590.0" y2="153.0" stroke="#1f77b4" stroke-width="1.2"/><circle cx="590.0" cy="130.4" r="3.2" fill="#1f77b4"/><line x1="604" y1="60" x2="624" y2="60" stroke="#1f77b4" stroke-width="2.2"/><text x="630" y="64" fill="#222">PPO (V3) − bandit (V2)</text><polyline points="70.0,323.2 156.7,250.2 243.3,187.9 416.7,224.9 590.0,256.3" fill="none" stroke="#d62728" stroke-width="2.2"/><line x1="70.0" y1="270.6" x2="70.0" y2="375.9" stroke="#d62728" stroke-width="1.2"/><circle cx="70.0" cy="323.2" r="3.2" fill="#d62728"/><line x1="156.7" y1="217.3" x2="156.7" y2="283.2" stroke="#d62728" stroke-width="1.2"/><circle cx="156.7" cy="250.2" r="3.2" fill="#d62728"/><line x1="243.3" y1="143.0" x2="243.3" y2="232.8" stroke="#d62728" stroke-width="1.2"/><circle cx="243.3" cy="187.9" r="3.2" fill="#d62728"/><line x1="416.7" y1="175.9" x2="416.7" y2="273.8" stroke="#d62728" stroke-width="1.2"/><circle cx="416.7" cy="224.9" r="3.2" fill="#d62728"/><line x1="590.0" y1="229.4" x2="590.0" y2="283.3" stroke="#d62728" stroke-width="1.2"/><circle cx="590.0" cy="256.3" r="3.2" fill="#d62728"/><line x1="604" y1="82" x2="624" y2="82" stroke="#d62728" stroke-width="2.2"/><text x="630" y="86" fill="#222">FQI (tabular V3) − bandit (V2)</text></svg>